HIERARCHY
ROOT Hips
{
	OFFSET 0.000000 0.000000 0.000000
	CHANNELS 6 Xposition Yposition Zposition Zrotation Yrotation Xrotation 
	JOINT LowerBack
	{
		OFFSET 0.000000 0.000000 0.000000
		CHANNELS 3 Zrotation Yrotation Xrotation
		JOINT Spine
		{
			OFFSET 0.028270 2.035590 -0.193380
			CHANNELS 3 Zrotation Yrotation Xrotation
			JOINT Spine1
			{
				OFFSET 0.056720 2.048850 -0.042750
				CHANNELS 3 Zrotation Yrotation Xrotation
				JOINT Neck
				{
					OFFSET 0.000000 0.000000 0.000000
					CHANNELS 3 Zrotation Yrotation Xrotation
					JOINT Neck1
					{
						OFFSET -0.054170 1.746240 0.172020
						CHANNELS 3 Zrotation Yrotation Xrotation
						JOINT Head
						{
							OFFSET 0.104070 1.761360 -0.123970
							CHANNELS 3 Zrotation Yrotation Xrotation
							End Site
							{
								OFFSET 0.000000 0.000000 0.000000
							}
						}
					}
				}
				JOINT LeftShoulder
				{
					OFFSET 0.000000 0.000000 0.000000
					CHANNELS 3 Zrotation Yrotation Xrotation
					JOINT LeftArm
					{
						OFFSET 3.362410 1.200890 -0.311210
						CHANNELS 3 Zrotation Yrotation Xrotation
						JOINT LeftForeArm
						{
							OFFSET 4.983000 -0.000000 -0.000000
							CHANNELS 3 Zrotation Yrotation Xrotation
							JOINT LeftHand
							{
								OFFSET 3.483560 -0.000000 -0.000000
								CHANNELS 3 Zrotation Yrotation Xrotation
								JOINT LeftFingerBase
								{
									OFFSET 0.000000 0.000000 0.000000
									CHANNELS 3 Zrotation Yrotation Xrotation
									JOINT LeftHandIndex1
									{
										OFFSET 0.715260 -0.000000 -0.000000
										CHANNELS 3 Zrotation Yrotation Xrotation
										End Site
										{
											OFFSET 0.000000 0.000000 0.000000
										}
									}
								}
								JOINT LThumb
								{
									OFFSET 0.000000 0.000000 0.000000
									CHANNELS 3 Zrotation Yrotation Xrotation
									End Site
									{
										OFFSET 0.000000 0.000000 0.000000
									}
								}
							}
						}
					}
				}
				JOINT RightShoulder
				{
					OFFSET 0.000000 0.000000 0.000000
					CHANNELS 3 Zrotation Yrotation Xrotation
					JOINT RightArm
					{
						OFFSET -3.136600 1.374050 -0.404650
						CHANNELS 3 Zrotation Yrotation Xrotation
						JOINT RightForeArm
						{
							OFFSET -5.241900 -0.000000 -0.000000
							CHANNELS 3 Zrotation Yrotation Xrotation
							JOINT RightHand
							{
								OFFSET -3.444170 -0.000000 -0.000000
								CHANNELS 3 Zrotation Yrotation Xrotation
								JOINT RightFingerBase
								{
									OFFSET 0.000000 0.000000 0.000000
									CHANNELS 3 Zrotation Yrotation Xrotation
									JOINT RightHandIndex1
									{
										OFFSET -0.622530 -0.000000 -0.000000
										CHANNELS 3 Zrotation Yrotation Xrotation
										End Site
										{
											OFFSET 0.000000 0.000000 0.000000
										}
									}
								}
								JOINT RThumb
								{
									OFFSET 0.000000 0.000000 0.000000
									CHANNELS 3 Zrotation Yrotation Xrotation
									End Site
									{
										OFFSET 0.000000 0.000000 0.000000
									}
								}
							}
						}
					}
				}
			}
		}
	}
}
}
MOTION
Frames: 7
Frame Time: 0.008333
-8.281474 18.011302 -0.973210 167.289146 78.674922 -168.613015 -3.119940 0.732857 -3.795062 -0.187307 1.018527 -3.353450 -0.059638 0.864260 0.742981 -1.549366 1.583292 -6.031400 0.852449 0.035652 0.447758 0.000000 0.000000 0.000000 17.026320 13.823027 3.851921 85.192286 -63.135436 -86.072488 -0.572655 -23.606445 0.022153 -2.818791 -1.125978 0.039169 0.013903 0.453332 0.000000 0.000000 0.000000 0.000000 0.000000 0.000000 0.000000 -13.691955 5.083208 -0.766333 8.048838 63.639012 4.002355 0.335997 26.885481 0.022870 16.484551 -6.543427 -0.971135 -0.296592 0.039906 0.000000 0.000000 0.000000 0.000000 0.000000 0.000000 0.000000 
-8.022205 18.052132 -1.010526 170.389159 78.612838 -165.540118 -2.687119 0.828833 -3.839481 -0.128795 1.076961 -3.349061 -0.167112 0.927308 0.819889 -1.381585 1.447418 -6.199515 0.775630 0.033189 0.401706 0.000000 0.000000 0.000000 16.991223 14.273841 3.901374 86.026619 -63.155638 -85.879567 -0.687229 -24.574185 0.040533 -5.561692 0.314981 0.004837 0.099879 0.405689 0.000000 0.000000 0.000000 0.000000 0.000000 0.000000 0.000000 -13.186802 5.037021 -0.684841 7.380128 63.284616 3.916777 0.287072 28.119811 0.025564 16.366714 -5.737340 -0.842741 -0.300303 0.016980 0.000000 0.000000 0.000000 0.000000 0.000000 0.000000 0.000000 
-7.765378 18.078438 -1.047628 173.302731 78.495215 -162.694501 -2.260074 0.904647 -3.836003 -0.067562 1.116371 -3.341127 -0.261981 0.971710 0.869005 -1.272119 1.288803 -6.373344 0.711019 0.031696 0.353881 0.000000 0.000000 0.000000 16.893400 14.558753 3.973037 86.351663 -63.106873 -85.566365 -0.776668 -25.616967 0.057960 -8.223865 1.817048 -0.106713 0.182305 0.356906 0.000000 0.000000 0.000000 0.000000 0.000000 0.000000 0.000000 -12.805193 4.983903 -0.623562 6.772399 63.037434 3.462925 0.238667 29.034000 0.028002 16.148067 -4.803173 -0.692744 -0.302738 -0.008512 0.000000 0.000000 0.000000 0.000000 0.000000 0.000000 0.000000 
-7.510789 18.090926 -1.083974 175.895655 78.326370 -160.217707 -1.860764 0.955042 -3.778259 -0.007704 1.133465 -3.328544 -0.344691 0.994039 0.890260 -1.210355 1.121103 -6.541703 0.658659 0.030990 0.307210 0.000000 0.000000 0.000000 16.732302 14.674261 4.061159 86.188840 -62.995011 -85.096506 -0.840757 -26.708364 0.073854 -10.713011 3.305653 -0.286789 0.257899 0.309360 0.000000 0.000000 0.000000 0.000000 0.000000 0.000000 0.000000 -12.537130 4.931835 -0.578698 6.219720 62.891121 2.708910 0.194001 29.646937 0.030084 15.876327 -3.843015 -0.540942 -0.304204 -0.034443 0.000000 0.000000 0.000000 0.000000 0.000000 0.000000 0.000000 
-7.258238 18.090146 -1.119144 178.069069 78.119240 -158.215471 -1.508338 0.977418 -3.660938 0.046892 1.127331 -3.310502 -0.415915 0.993304 0.883402 -1.185722 0.956820 -6.693760 0.618086 0.030862 0.264604 0.000000 0.000000 0.000000 16.516110 14.622732 4.157400 85.567810 -62.834037 -84.462283 -0.878756 -27.825175 0.087834 -12.954124 4.694831 -0.514297 0.324416 0.265721 0.000000 0.000000 0.000000 0.000000 0.000000 0.000000 0.000000 -12.369462 4.890296 -0.546863 5.703798 62.834597 1.705751 0.153641 29.988327 0.031807 15.575141 -2.943369 -0.401837 -0.304786 -0.059131 0.000000 0.000000 0.000000 0.000000 0.000000 0.000000 0.000000 
-7.007419 18.076703 -1.153145 179.865771 77.893385 -156.640367 -1.198579 0.974694 -3.491308 0.096511 1.100612 -3.288206 -0.477409 0.972143 0.849051 -1.188732 0.805600 -6.820150 0.587737 0.031035 0.228722 0.000000 0.000000 0.000000 16.255417 14.416476 4.251513 84.532193 -62.640871 -83.695765 -0.889382 -28.944379 0.099746 -14.891168 5.904808 -0.759539 0.380697 0.228470 -0.000000 0.000000 0.000000 0.000000 0.000000 0.000000 0.000000 -12.286311 4.869238 -0.525187 5.196783 62.855422 0.494541 0.116299 30.095357 0.033216 15.244332 -2.167740 -0.284530 -0.304295 -0.081428 0.000000 0.000000 0.000000 0.000000 0.000000 0.000000 0.000000 
-6.757944 18.050921 -1.185842 -178.674078 77.671823 -155.450790 -0.933677 0.951363 -3.274357 0.139861 1.057883 -3.262347 -0.531044 0.935144 0.788179 -1.208898 0.673793 -6.914173 0.565975 0.031272 0.201513 0.000000 0.000000 0.000000 15.970917 14.072571 4.333465 83.122321 -62.435829 -82.854108 -0.871604 -30.044020 0.109614 -16.485043 6.876950 -0.991015 0.426448 0.199390 -0.000000 0.000000 0.000000 0.000000 0.000000 0.000000 0.000000 -12.269107 4.876436 -0.511472 4.665528 62.940665 -0.893992 0.079547 30.010094 0.034361 14.867581 -1.553371 -0.193123 -0.302371 -0.100751 0.000000 0.000000 0.000000 0.000000 0.000000 0.000000 0.000000 
